sit_stand0002_filtered
version=1
nRows=23
nColumns=19
inDegrees=no
endheader
time	ground_force_r_vx	ground_force_r_vy	ground_force_r_vz	ground_force_r_px	ground_force_r_py	ground_force_r_pz	ground_torque_r_x	ground_torque_r_y	ground_torque_r_z	ground_force_l_vx	ground_force_l_vy	ground_force_l_vz	ground_force_l_px	ground_force_l_py	ground_force_l_pz	ground_torque_l_x	ground_torque_l_y	ground_torque_l_z
1.9749999999999999	7.4063876455696205	36.94034	-1.9737250717299561	0.21922520356962039	0.0	0.08270565327004409	-5.040754	0.259597	-1.777363	-1.6805923544303798	52.795465	-3.3081260717299563	0.2041994705696203	0.0	-0.24627409772995623	7.234237	-0.102791	0.034063
1.9766666666666668	7.712460645569621	36.330441	-1.9757220717299564	0.2158964025696204	0.0	0.0753992132700434	-5.22186	0.13494	-1.227965	-1.3683693544303799	53.405167	-2.7006960717299564	0.1995922105696203	0.0	-0.2512528267299565	7.053765	-0.348798	0.217285
1.9783333333333333	7.402550645569621	37.550221	-2.2798160717299565	0.2191215445696204	0.0	0.08495390927004376	-5.040344	0.259178	-1.502705	-1.6772053544303798	52.795212	-3.0029690717299564	0.1970708105696204	0.0	-0.2635554257299564	6.322831	-0.479141	0.033937
1.9800000000000002	8.93512064556962	36.943064	-1.6831950717299562	0.2257050195696203	0.0	0.08261727527004314	-5.043231	0.503865	-1.86854	-1.3825013544303795	52.185477	-3.9223290717299566	0.1948431475696203	0.0	-0.24102271472995618	7.422751	-0.58901	0.034554
1.9816666666666667	8.942793645569619	35.723302	-1.0710130717299564	0.20895296656962037	0.0	0.0677951372700436	-5.403163	-0.110388	-1.594279	-1.6766213544303799	54.015915	-3.001963071729956	0.2042397775696203	0.0	-0.24938672172995613	7.234208	-0.102741	0.095098
1.9833333333333332	8.32863464556962	36.332281	-1.3712510717299562	0.21272302456962033	0.0	0.10058749327004346	-4.306163	0.02263	-1.870373	-1.9959103544303798	52.796367	-4.220209071729957	0.19273543956962036	0.0	-0.23915494472995658	7.607171	-0.70899	0.095776
1.985	8.33155964556962	36.33275	-1.0660900717299562	0.2158422765696204	0.0	0.07531968627004382	-5.22309	0.136195	-2.051937	-0.7599823544303796	56.45689	-3.0101140717299564	0.2043000585696203	0.0	-0.2519302347299561	7.417419	-0.10091	-0.148956
1.9866666666666666	8.017621645569621	36.330892	-1.9786480717299564	0.21927924456962034	0.0	0.08040901627004349	-5.040344	0.259178	-1.502705	-1.3855963544303795	52.796081	-4.226983071729956	0.20194672056962037	0.0	-0.23925718972995647	7.601751	-0.220739	0.095371
1.9883333333333335	8.62885564556962	35.721444	-1.9835710717299562	0.21601481556962032	0.0	0.08832257227004359	-4.673253	0.140904	-1.686539	-1.6738183544303797	52.794959	-2.6978120717299565	0.20651105856962038	0.0	-0.2463364637299561	7.232824	0.019372	0.156032
1.99	7.41223864556962	36.941278	-1.3634020717299564	0.2224827935696203	0.0	0.07766303327004387	-5.224748	0.379626	-1.5938	-1.9722003544303799	52.794597	-2.0841110717299562	0.1995930145696203	0.0	-0.24629638072995608	7.236918	-0.346866	0.095301
1.9916666666666665	8.01671064556962	36.941242	-1.9795770717299566	0.21591463456962035	0.0	0.08769629927004363	-4.856487	0.139288	-1.777821	-1.9789753544303796	52.795102	-2.6944250717299565	0.20194391156962033	0.0	-0.24281734772995645	7.418686	-0.222822	0.03425
1.9933333333333334	8.64257264556962	36.33414	-0.45869307172995644	0.22954984556962033	0.0	0.10538833227004307	-4.128917	0.634709	-1.869706	-1.3689533544303798	52.184465	-2.7017020717299562	0.1948423235696204	0.0	-0.24109697972995647	7.422693	-0.588909	0.156624
1.9949999999999999	8.94006064556962	37.554353	-1.0738020717299563	0.2060307415696203	0.0	0.08985445127004432	-4.852429	-0.227464	-1.412174	-1.3717563544303795	53.40542	-3.0058530717299563	0.20183993156962043	0.0	-0.25468841372995676	6.869345	-0.228818	0.156063
1.9966666666666668	8.93804564556962	36.943533	-1.3780340717299562	0.21928365656962034	0.0	0.10248821027004329	-4.308503	0.266759	-1.869998	-1.6907533544303799	52.796224	-4.223596071729956	0.20416158756962033	0.0	-0.24968703672995574	7.051026	-0.104622	0.278118
1.9983333333333333	8.02054764556962	36.331361	-1.6734860717299562	0.2228335185696203	0.0	0.10051722227004323	-4.309127	0.388266	-1.5036	-0.7688003544303796	52.184937	-3.6239470717299564	0.20170608956962033	0.0	-0.2516444227299557	6.869287	-0.228718	0.278133
2.0	8.64257264556962	36.33414	-0.45869307172995644	0.21586342056962027	0.0	0.08030836227004379	-5.039584	0.137532	-1.77755	-1.3822093544303795	52.795828	-3.9218270717299566	0.19948054656962033	0.0	-0.25312185172995605	6.8707	-0.350881	0.156164
2.001666666666667	8.63086964556962	36.332263	-1.6793390717299563	0.2159611155696204	0.0	0.09049863827004412	-4.67339	0.141044	-1.778092	-1.6873663544303799	52.795971	-3.9184390717299564	0.20173390756962029	0.0	-0.260083704729956	6.503157	-0.232883	0.155891
2.003333333333333	8.62703364556962	36.942144	-1.9854300717299562	0.2125565275696204	0.0	0.0877285012700435	-4.85518	0.017084	-1.686456	-2.60371335443038	50.965347	-3.9097860717299566	0.19457240256962027	0.0	-0.24480296372995713	7.056563	-0.593075	0.034382
2.005	8.32369364556962	35.720993	-1.9806450717299562	0.2124758215696203	0.0	0.07297120427004344	-5.220964	0.013154	-1.411257	-1.3726323544303798	51.574366	-3.0073610717299566	0.19459237056962042	0.0	-0.25004656372995626	6.87341	-0.595006	0.156366
2.006666666666667	8.93986764556962	35.722833	-1.3761740717299564	0.22619392456962029	0.0	0.08304225027004364	-4.859177	0.504645	-1.227943	-1.6774973544303797	52.184861	-3.0034710717299564	0.20643944956962035	0.0	-0.25173409972995575	6.866519	0.015508	0.400001
2.0083333333333337	7.71648964556962	37.552079	-1.3672580717299563	0.21273152256962036	0.0	0.09957254427004347	-4.488849	0.020456	-1.595445	-1.3782383544303796	54.016277	-3.6156640717299564	0.2041846155696203	0.0	-0.2527402697299568	7.051056	-0.104673	0.217083
2.01	8.03718964556962	36.944526	0.15655192827004338	0.21921850356962036	0.0	0.08748093127004353	-4.857657	0.261352	-1.777633	-1.3726323544303798	51.574366	-3.0073610717299566	0.1992864015696204	0.0	-0.2536491807299557	6.687606	-0.352913	0.156078
2.0116666666666667	8.02841264556962	36.943118	-0.7589320717299564	0.2127030725696203	0.0	0.09753993227004365	-4.488986	0.020595	-1.686998	-2.8919343544303793	50.964225	-2.380614071729956	0.2042104815696204	0.0	-0.24141197772995593	7.234237	-0.102791	0.034063
